#!OML:ASF F:\VICON\USERDATA\INSTALL\rory3\rory3.ASF
:FULLY-SPECIFIED
:DEGREES
396
root 1.02193 17.7408 14.5417 -7.69458 -0.838807 6.42703
lowerback 18.1902 0.236239 -5.07635
upperback 0.19519 -0.490412 2.59922
thorax -9.96851 0.0918758 5.89277
lowerneck -7.04923 -2.76473 -3.96938
upperneck 31.8714 -2.31141 -3.26325
head 11.5563 -1.90415 -0.789615
rclavicle -1.14301e-014 -1.59028e-015
rhumerus -53.6471 -45.7066 -37.3845
rradius 29.1062
rwrist -16.967
rhand -19.3706 -0.921917
rfingers 7.12502
rthumb 6.94744 -30.7879
lclavicle -1.14301e-014 -1.59028e-015
lhumerus -44.5761 -0.0351696 79.8554
lradius 63.7463
lwrist 13.4581
lhand -14.4046 47.0296
lfingers 7.12502
lthumb 11.739 76.6807
rfemur -26.3903 -3.91424 13.5724
rtibia 59.4061
rfoot -12.5185 -14.9472
rtoes 10.7543
lfemur 0.236926 -6.92129 -33.0046
ltibia 31.3371
lfoot -15.7667 -1.11982
ltoes -3.52172
397
root 1.00117 17.7525 14.7207 -7.49791 -0.676753 6.40517
lowerback 18.0608 0.0529894 -5.16985
upperback 0.312582 -0.732752 2.73328
thorax -9.72825 -0.0276684 6.15189
lowerneck -7.37491 -2.63658 -3.73051
upperneck 31.6899 -2.05114 -3.6228
head 11.5409 -1.80094 -0.93555
rclavicle -2.15681e-014 1.74931e-014
rhumerus -53.7468 -44.9345 -37.7973
rradius 30.5749
rwrist -17.9061
rhand -19.406 -0.746388
rfingers 7.12502
rthumb 6.91321 -30.6135
lclavicle -2.15681e-014 1.74931e-014
lhumerus -44.3665 0.440604 79.419
lradius 64.6208
lwrist 13.9369
lhand -14.0818 48.3303
lfingers 7.12502
lthumb 12.0502 77.9634
rfemur -26.936 -3.44975 13.4454
rtibia 57.1499
rfoot -12.2129 -15.7298
rtoes 11.4081
lfemur 1.1907 -7.04502 -33.0568
ltibia 30.4095
lfoot -15.7204 -1.01087
ltoes -2.95147
398
root 0.973281 17.7632 14.9036 -7.3691 -0.431234 6.43938
lowerback 17.8132 -0.111207 -5.36073
upperback 0.494306 -0.968967 2.81662
thorax -9.34887 -0.149923 6.40093
lowerneck -7.41043 -2.551 -3.49056
upperneck 31.3944 -1.91044 -3.85988
head 11.4234 -1.73335 -1.04192
rclavicle 8.05078e-015 2.06736e-014
rhumerus -54.9419 -46.1652 -35.8672
rradius 30.7582
rwrist -16.5723
rhand -19.3714 -0.209886
rfingers 7.12502
rthumb 6.94666 -30.0759
lclavicle 8.05078e-015 2.06736e-014
lhumerus -44.2206 0.759887 78.9702
lradius 65.6131
lwrist 14.8469
lhand -14.1759 48.3632
lfingers 7.12502
lthumb 11.9595 78.0016
rfemur -27.328 -2.96914 13.2387
rtibia 54.7755
rfoot -11.7267 -16.5616
rtoes 11.2322
lfemur 2.26142 -7.1624 -33.1135
ltibia 29.4102
lfoot -15.7164 -1.03028
ltoes -3.70066
399
root 0.954022 17.7673 15.094 -7.21704 -0.311499 6.77521
lowerback 17.0956 -0.216643 -5.68087
upperback 0.823455 -1.13899 2.77401
thorax -8.55334 -0.26242 6.54264
lowerneck -7.12206 -2.52686 -3.50634
upperneck 30.7854 -1.91588 -3.82504
head 11.1267 -1.72154 -1.00785
rclavicle -1.13804e-014 -1.59028e-014
rhumerus -55.947 -47.2365 -34.2847
rradius 31.212
rwrist -15.8101
rhand -19.7389 0.156072
rfingers 7.12502
rthumb 6.59189 -29.7213
lclavicle -1.13804e-014 -1.59028e-014
lhumerus -43.9219 0.890588 78.5836
lradius 66.7013
lwrist 15.8645
lhand -14.1979 49.702
lfingers 7.12502
lthumb 11.9383 79.3416
rfemur -27.6686 -2.46602 12.615
rtibia 52.3152
rfoot -11.0319 -17.0552
rtoes 11.5907
lfemur 3.3986 -7.16208 -33.515
ltibia 28.3679
lfoot -15.7431 -0.996413
ltoes -4.7293
400
root 0.932917 17.7802 15.284 -7.08841 -0.474571 6.92209
lowerback 17.4711 -0.318354 -5.96129
upperback 0.707691 -1.34726 2.80534
thorax -8.85187 -0.333686 6.80887
lowerneck -7.60503 -2.35342 -3.31741
upperneck 30.9959 -1.63051 -3.98036
head 11.3025 -1.59789 -1.07801
rclavicle 1.19271e-014 -1.43125e-014
rhumerus -57.4458 -48.0785 -32.16
rradius 31.6236
rwrist -14.6304
rhand -19.1773 0.922633
rfingers 7.12502
rthumb 7.13398 -28.9371
lclavicle 1.19271e-014 -1.43125e-014
lhumerus -44.4231 1.23738 78.0123
lradius 67.9676
lwrist 16.4848
lhand -14.2611 50.8684
lfingers 7.12502
lthumb 11.8773 80.5116
rfemur -27.9462 -1.62309 12.2385
rtibia 49.7259
rfoot -9.98456 -17.5545
rtoes 11.4423
lfemur 4.55694 -6.90472 -33.6425
ltibia 27.2431
lfoot -15.7754 -1.02264
ltoes -5.62129
401
root 0.909028 17.7968 15.4641 -6.85792 -0.613092 6.88972
lowerback 17.7222 -0.429264 -6.0233
upperback 0.430389 -1.51856 2.86401
thorax -9.26909 -0.384013 6.97308
lowerneck -7.36197 -2.17161 -3.07049
upperneck 31.1432 -1.35124 -4.24711
head 11.3067 -1.477 -1.18611
rclavicle 1.82385e-014 -1.74931e-014
rhumerus -58.2653 -47.1709 -31.7496
rradius 33.0969
rwrist -15.6811
rhand -18.1935 1.21529
rfingers 7.12502
rthumb 8.08358 -28.6101
lclavicle 1.82385e-014 -1.74931e-014
lhumerus -45.2115 1.44313 77.5045
lradius 69.0466
lwrist 16.8151
lhand -14.542 50.7697
lfingers 7.12502
lthumb 11.6065 80.4282
rfemur -28.2797 -0.639006 12.0431
rtibia 47.0466
rfoot -9.4622 -18.1432
rtoes 13.3013
lfemur 5.57398 -6.76951 -33.5376
ltibia 26.0504
lfoot -15.6038 -1.1879
ltoes -5.61761
402
root 0.887354 17.8067 15.6398 -6.6291 -0.58952 7.03925
lowerback 17.8233 -0.573774 -6.21539
upperback 0.334776 -1.7539 2.89272
thorax -9.38737 -0.478583 7.18317
lowerneck -7.45326 -2.02606 -2.95503
upperneck 31.3338 -1.10216 -4.4322
head 11.4001 -1.37831 -1.25179
rclavicle -1.35174e-014 -6.36111e-015
rhumerus -59.2468 -47.2339 -30.5413
rradius 34.2079
rwrist -15.9583
rhand -17.1541 1.41884
rfingers 7.12502
rthumb 9.08667 -28.3654
lclavicle -1.35174e-014 -6.36111e-015
lhumerus -45.5313 1.68658 77.0734
lradius 69.7582
lwrist 17.0408
lhand -14.6439 50.6977
lfingers 7.12502
lthumb 11.5082 80.3618
rfemur -28.5444 0.108947 11.5762
rtibia 44.3381
rfoot -8.73804 -18.547
rtoes 13.8292
lfemur 6.59897 -6.81136 -33.6656
ltibia 24.827
lfoot -15.2403 -1.33792
ltoes -6.19748
403
root 0.866762 17.8087 15.8177 -6.37997 -0.59288 7.32569
lowerback 17.6854 -0.654413 -6.47583
upperback 0.390313 -1.91181 2.82898
thorax -9.21588 -0.554601 7.29232
lowerneck -7.62964 -1.97357 -2.90027
upperneck 31.3341 -1.05975 -4.33735
head 11.4357 -1.34394 -1.22407
rclavicle -1.80894e-014 9.54166e-015
rhumerus -59.6901 -46.736 -30.5232
rradius 36.0446
rwrist -17.7574
rhand -16.8955 1.09636
rfingers 7.12502
rthumb 9.33621 -28.6769
lclavicle -1.80894e-014 9.54166e-015
lhumerus -45.3362 1.64746 76.6816
lradius 70.1212
lwrist 17.2422
lhand -14.904 50.5472
lfingers 7.12502
lthumb 11.2574 80.2251
rfemur -28.8352 0.856375 10.9217
rtibia 41.6685
rfoot -8.12052 -18.8599
rtoes 13.6053
lfemur 7.57162 -6.80435 -33.9452
ltibia 23.617
lfoot -14.8302 -1.52444
ltoes -6.47804
404
root 0.845478 17.8031 16.0039 -6.23836 -0.649337 7.62819
lowerback 17.5072 -0.700404 -6.72486
upperback 0.523283 -2.01968 2.72886
thorax -8.94552 -0.616272 7.33604
lowerneck -7.72379 -1.88546 -2.73545
upperneck 31.1375 -0.97139 -4.32699
head 11.375 -1.28154 -1.23523
rclavicle 1.6201e-014 1.59028e-015
rhumerus -60.3128 -46.3883 -30.2781
rradius 37.9733
rwrist -19.7874
rhand -16.5857 0.760107
rfingers 7.12502
rthumb 9.6351 -28.9995
lclavicle 1.6201e-014 1.59028e-015
lhumerus -45.1724 1.52289 76.2977
lradius 70.6111
lwrist 17.2704
lhand -14.8354 52.0012
lfingers 7.12502
lthumb 11.3235 81.6755
rfemur -28.9633 1.68607 10.2154
rtibia 39.067
rfoot -8.04971 -19.0733
rtoes 14.0453
lfemur 8.66392 -6.59677 -34.1978
ltibia 22.4306
lfoot -14.5284 -1.89729
ltoes -6.52922
405
root 0.820609 17.7998 16.1945 -6.09796 -0.511523 7.90672
lowerback 17.4838 -0.832388 -7.00113
upperback 0.493025 -2.25481 2.67268
thorax -8.91728 -0.719347 7.48904
lowerneck -7.64679 -1.77982 -2.61229
upperneck 30.9875 -0.812312 -4.46939
head 11.3001 -1.20993 -1.28612
rclavicle 4.4329e-014 -1.43125e-014
rhumerus -61.164 -45.7934 -29.6769
rradius 39.7893
rwrist -21.2434
rhand -16.0434 0.558676
rfingers 7.12502
rthumb 10.1583 -29.1761
lclavicle 4.4329e-014 -1.43125e-014
lhumerus -45.587 1.40643 75.9509
lradius 71.3383
lwrist 17.2005
lhand -13.2828 55.7821
lfingers 7.12502
lthumb 12.8206 85.3684
rfemur -28.9115 2.3915 9.52306
rtibia 36.4642
rfoot -8.51102 -19.3348
rtoes 13.4168
lfemur 9.70965 -6.54884 -34.3877
ltibia 21.4085
lfoot -14.1565 -2.41583
ltoes -7.69532
406
root 0.789818 17.8055 16.384 -5.94036 -0.00155865 7.84264
lowerback 17.6986 -1.14366 -7.02346
upperback 0.322022 -2.68287 2.74774
thorax -9.14615 -0.90373 7.70709
lowerneck -7.44938 -1.6725 -2.43882
upperneck 30.8812 -0.645884 -4.684
head 11.218 -1.13775 -1.37104
rclavicle -4.45278e-014 3.65764e-014
rhumerus -61.819 -44.7749 -29.4187
rradius 41.8072
rwrist -23.1072
rhand -16.2008 0.33818
rfingers 7.12502
rthumb 10.0064 -29.404
lclavicle -4.45278e-014 3.65764e-014
lhumerus -46.2426 1.27888 75.6204
lradius 71.7204
lwrist 17.2187
lhand -10.434 60.7529
lfingers 7.12502
lthumb 15.5657 -90.1464
rfemur -28.619 3.12153 9.13931
rtibia 33.8305
rfoot -9.44116 -19.7798
rtoes 12.0267
lfemur 10.695 -6.90441 -34.2108
ltibia 20.6196
lfoot -13.7654 -2.86349
ltoes -8.49786
